<svg xmlns="http://www.w3.org/2000/svg" viewBox="0 0 64 64" role="img" aria-labelledby="title">
  <title id="title">hlool pdf favicon Alan</title>
  <rect width="64" height="64" rx="14" fill="#F8FBFF"/>
  <path d="M14 38c-7-5-6-16 2-20 4-2 8-2 12 0 3-7 10-11 18-8 5 1 8 5 10 9 5 0 9 4 10 9 1 7-3 13-10 15-3 8-11 13-22 13-12 0-21-6-23-16 0-1 1-2 3-2Z" fill="#FFF" stroke="#071B4A" stroke-width="4" stroke-linejoin="round"/>
  <path d="M22 35c0-7 6-11 16-11s16 4 16 11c0 9-6 15-16 15s-16-6-16-15Z" fill="#071B4A"/>
  <path d="M27 34c3 3 7 3 10 0M40 34c3 3 7 3 10 0" fill="none" stroke="#FFF" stroke-width="3" stroke-linecap="round"/>
  <circle cx="51" cy="18" r="11" fill="#0B73FF" stroke="#071B4A" stroke-width="3"/>
  <path d="M55 14c-7-5-15 2-10 9 3 5 12 3 11-3 0-4-4-6-7-3" fill="none" stroke="#071B4A" stroke-width="3" stroke-linecap="round"/>
  <circle cx="53" cy="49" r="3.5" fill="#FFC72C"/>
</svg>
