<svg xmlns="http://www.w3.org/2000/svg" viewBox="0 0 620 180" role="img" aria-labelledby="title desc">
  <title id="title">hlool pdf horizontal logo lockup</title>
  <desc id="desc">Alan sheep product mark with hlool pdf wordmark and Chinese descriptor.</desc>
  <rect width="620" height="180" rx="28" fill="#F8FBFF"/>
  <g transform="translate(30 26) scale(.5)">
    <rect width="256" height="256" rx="56" fill="#FFFFFF"/>
    <path d="M53 139c-19-11-23-42-3-58 8-7 19-9 29-7 7-24 31-39 56-34 16 3 29 14 36 28 17-3 36 7 43 23 9 19 1 41-17 51 1 5 0 10-1 15-6 29-34 49-68 49-37 0-67-20-75-50-2-6-2-12 0-17Z" fill="#FFF" stroke="#071B4A" stroke-width="8" stroke-linejoin="round"/>
    <path d="M76 132c0-24 18-39 52-39s52 15 52 39c0 29-20 47-52 47s-52-18-52-47Z" fill="#071B4A"/>
    <path d="M93 129c9 9 23 9 32 0M132 129c9 9 23 9 32 0" fill="none" stroke="#FFF" stroke-width="8" stroke-linecap="round"/>
    <g transform="translate(161 34)">
      <circle cx="39" cy="39" r="34" fill="#0B73FF" stroke="#071B4A" stroke-width="7"/>
      <path d="M49 25c-20-14-44 6-31 27 10 16 35 10 34-8-.1-11-13-16-21-9" fill="none" stroke="#071B4A" stroke-width="7" stroke-linecap="round"/>
    </g>
    <path d="M199 177l6 12 13 2-10 9 3 13-12-7-12 7 3-13-10-9 13-2 6-12Z" fill="#FFC72C" stroke="#071B4A" stroke-width="5" stroke-linejoin="round"/>
  </g>
  <g transform="translate(184 45)">
    <text x="0" y="45" font-family="Inter, Segoe UI, Arial, sans-serif" font-size="46" font-weight="800" fill="#071B4A" letter-spacing="0">hlool pdf</text>
    <text x="2" y="82" font-family="Inter, Segoe UI, Microsoft YaHei, sans-serif" font-size="18" font-weight="600" fill="#5F6F82" letter-spacing="0">优雅顺手的 PDF 盖章工作台</text>
    <g transform="translate(0 105)">
      <rect width="136" height="20" rx="10" fill="#C8372D" opacity=".12"/>
      <circle cx="14" cy="10" r="5" fill="#C8372D"/>
      <text x="28" y="15" font-family="Inter, Segoe UI, Microsoft YaHei, sans-serif" font-size="12" font-weight="700" fill="#C8372D">direct stamp</text>
    </g>
  </g>
</svg>
